# xmcd
#
# Track frame offsets:
#	150
#	19452
#	29655
#	45863
#	61917
#	66125
#	78678
#	91891
#	112452
#	120142
#	134333
#	149638
#	167784
#	185897
#	198267
#
# Disc length: 2739 seconds
#
# Revision: 0
# Processed by: cddbd v1.5.2PL0 Copyright (c) Steve Scherf et al.
# Submitted via: EasyCDDAExtractor 16.0.1.1
#
DISCID=de0ab10f
DTITLE=Riders in the Sky - The Cowboy Way
DYEAR=1987
DGENRE=Country
TTITLE0=Texas Plains
TTITLE1=Back In The Saddle Again
TTITLE2=Riders In The Sky
TTITLE3=Carry Me Back To The Lone Prairie
TTITLE4=Mr. Sincere (State Fair Burnout)
TTITLE5=Concerto For Violin And Longhorns
TTITLE6=Lonely Yukon Stars
TTITLE7=The Salting Of The Slug
TTITLE8=When Pay Day Rolls Around
TTITLE9=My Oklahoma
TTITLE10=Reincarnation
TTITLE11=Miss Molly
TTITLE12=Ridin' Down The Canyon (When The Sun Goes Down)
TTITLE13=That's How The Yodel Was Born
TTITLE14=Happy Trails
EXTD=
EXTT0=
EXTT1=
EXTT2=
EXTT3=
EXTT4=
EXTT5=
EXTT6=
EXTT7=
EXTT8=
EXTT9=
EXTT10=
EXTT11=
EXTT12=
EXTT13=
EXTT14=
PLAYORDER=
